<svg xmlns="http://www.w3.org/2000/svg" fill="none" viewBox="0 0 20 20"><path fill="#F7931A" d="M19.7 12.42A9.996 9.996 0 1 1 .302 7.582 9.996 9.996 0 0 1 19.7 12.42Z"/><path fill="#fff" d="M14.41 8.575c.2-1.33-.815-2.045-2.2-2.523l.45-1.802-1.098-.273-.439 1.755c-.288-.072-.583-.14-.878-.207l.44-1.767-1.097-.273-.448 1.8-2.213-.547-.292 1.172s.813.187.797.198c.445.112.525.405.511.639l-1.231 4.936c-.055.133-.192.337-.504.26.012.017-.796-.2-.796-.2L4.867 13l2.21.558-.455 1.824 1.096.273.45-1.803c.3.081.59.156.875.226l-.45 1.795 1.099.274.455-1.82c1.87.356 3.278.213 3.87-1.477.476-1.362-.024-2.149-1.009-2.66.717-.167 1.257-.638 1.4-1.612h.002v-.003Zm-2.508 3.517c-.34 1.361-2.634.624-3.377.44l.602-2.415c.743.184 3.128.553 2.775 1.974Zm.34-3.535c-.309 1.24-2.219.61-2.839.455l.545-2.192c.62.155 2.617.443 2.294 1.737Z"/></svg>