<svg xmlns="http://www.w3.org/2000/svg" fill="none" viewBox="0 0 20 20"><g clip-path="url(#a)"><path fill="#000" d="M17.52 19.86H2.5a2.3 2.3 0 0 1-2.3-2.29V2.53A2.3 2.3 0 0 1 2.5.24h15.04a2.3 2.3 0 0 1 2.29 2.3v15.03a2.31 2.31 0 0 1-2.3 2.3Z"/><mask id="b" width="18" height="18" x="0" y="0" maskUnits="userSpaceOnUse" style="mask-type:luminance"><path fill="#fff" d="M.16.21h17.39V17.6H.16V.21Z"/></mask><g mask="url(#b)"><mask id="c" width="18" height="18" x="0" y="0" maskUnits="userSpaceOnUse" style="mask-type:luminance"><path fill="#fff" d="M8.42 6.3h3.04L17.52.24H2.5a2.3 2.3 0 0 0-2.3 2.29v15.04l8.23-8.23V6.3Z"/></mask><g mask="url(#c)"><path fill="url(#d)" d="M.2.24v17.33h17.32V.24H.2Z"/></g></g><path fill="#fff" d="m3.17 6.35.26-.53c.04-.1.14-.12.23-.07 0 0 .45.23.9.23.2 0 .34-.08.34-.24 0-.18-.14-.29-.66-.5-.76-.3-1.12-.7-1.12-1.3 0-.6.45-1.16 1.46-1.16.58 0 1 .16 1.21.3.1.06.14.17.1.27l-.25.5c-.05.1-.16.1-.24.07 0 0-.45-.2-.81-.2-.24 0-.34.1-.34.22 0 .18.17.24.54.39.76.29 1.33.62 1.33 1.39 0 .65-.57 1.2-1.56 1.2-.65 0-1.11-.2-1.31-.36-.08-.05-.13-.14-.08-.21ZM6.9 5.12c0-.14.12-.28.28-.28h3.42c1.78 0 3.14 1.19 3.14 2.75 0 1.15-.94 2.05-1.64 2.37.79.26 1.94 1.07 1.94 2.43 0 1.67-1.43 2.88-3.25 2.88H7.2a.28.28 0 0 1-.29-.29V5.12Zm3.52 4.1c.76 0 1.28-.6 1.28-1.34 0-.74-.52-1.27-1.28-1.27h-1.6v2.61h1.6Zm.2 4.29c.75 0 1.34-.58 1.34-1.36 0-.74-.74-1.3-1.52-1.3H8.83v2.66h1.8Z"/></g><defs><linearGradient id="d" x1=".2" x2="17.52" y1="8.9" y2="8.9" gradientUnits="userSpaceOnUse"><stop stop-color="#ED693C"/><stop offset=".01" stop-color="#ED693C"/><stop offset=".02" stop-color="#ED6A3B"/><stop offset=".02" stop-color="#ED6B3B"/><stop offset=".03" stop-color="#ED6C3A"/><stop offset=".04" stop-color="#EE6D3A"/><stop offset=".05" stop-color="#EE6D3A"/><stop offset=".06" stop-color="#EE6E39"/><stop offset=".06" stop-color="#EE6F39"/><stop offset=".07" stop-color="#EE7038"/><stop offset=".08" stop-color="#EE7138"/><stop offset=".09" stop-color="#EE7237"/><stop offset=".09" stop-color="#EE7237"/><stop offset=".1" stop-color="#EF7337"/><stop offset=".11" stop-color="#EF7436"/><stop offset=".12" stop-color="#EF7536"/><stop offset=".13" stop-color="#EF7635"/><stop offset=".13" stop-color="#EF7635"/><stop offset=".14" stop-color="#EF7735"/><stop offset=".15" stop-color="#EF7834"/><stop offset=".16" stop-color="#F07934"/><stop offset=".16" stop-color="#F07A33"/><stop offset=".17" stop-color="#F07A33"/><stop offset=".18" stop-color="#F07B32"/><stop offset=".19" stop-color="#F07C32"/><stop offset=".2" stop-color="#F07D32"/><stop offset=".2" stop-color="#F07E31"/><stop offset=".21" stop-color="#F17E31"/><stop offset=".22" stop-color="#F17F30"/><stop offset=".23" stop-color="#F18030"/><stop offset=".23" stop-color="#F1812F"/><stop offset=".24" stop-color="#F1822F"/><stop offset=".25" stop-color="#F1822F"/><stop offset=".26" stop-color="#F1832E"/><stop offset=".27" stop-color="#F2842E"/><stop offset=".27" stop-color="#F2852D"/><stop offset=".28" stop-color="#F2862D"/><stop offset=".29" stop-color="#F2862C"/><stop offset=".3" stop-color="#F2872C"/><stop offset=".3" stop-color="#F2882C"/><stop offset=".31" stop-color="#F2892B"/><stop offset=".32" stop-color="#F38A2B"/><stop offset=".33" stop-color="#F38A2A"/><stop offset=".34" stop-color="#F38B2A"/><stop offset=".34" stop-color="#F38C2A"/><stop offset=".35" stop-color="#F38D29"/><stop offset=".36" stop-color="#F38E29"/><stop offset=".37" stop-color="#F38E28"/><stop offset=".38" stop-color="#F38F28"/><stop offset=".38" stop-color="#F49027"/><stop offset=".39" stop-color="#F49127"/><stop offset=".4" stop-color="#F49227"/><stop offset=".41" stop-color="#F49226"/><stop offset=".41" stop-color="#F49326"/><stop offset=".42" stop-color="#F49425"/><stop offset=".43" stop-color="#F49525"/><stop offset=".44" stop-color="#F59624"/><stop offset=".45" stop-color="#F59624"/><stop offset=".45" stop-color="#F59724"/><stop offset=".46" stop-color="#F59823"/><stop offset=".47" stop-color="#F59923"/><stop offset=".48" stop-color="#F59A22"/><stop offset=".48" stop-color="#F59A22"/><stop offset=".49" stop-color="#F69B21"/><stop offset=".5" stop-color="#F69C21"/><stop offset=".51" stop-color="#F69D21"/><stop offset=".52" stop-color="#F69E20"/><stop offset=".52" stop-color="#F69E20"/><stop offset=".53" stop-color="#F69F1F"/><stop offset=".54" stop-color="#F6A01F"/><stop offset=".55" stop-color="#F7A11F"/><stop offset=".56" stop-color="#F7A21E"/><stop offset=".56" stop-color="#F7A21E"/><stop offset=".57" stop-color="#F7A31D"/><stop offset=".58" stop-color="#F7A41D"/><stop offset=".59" stop-color="#F7A51C"/><stop offset=".59" stop-color="#F7A61C"/><stop offset=".6" stop-color="#F8A61C"/><stop offset=".61" stop-color="#F8A71B"/><stop offset=".62" stop-color="#F8A81B"/><stop offset=".63" stop-color="#F8A91A"/><stop offset=".63" stop-color="#F8AA1A"/><stop offset=".64" stop-color="#F8AA19"/><stop offset=".65" stop-color="#F8AB19"/><stop offset=".66" stop-color="#F8AC19"/><stop offset=".66" stop-color="#F9AD18"/><stop offset=".67" stop-color="#F9AE18"/><stop offset=".68" stop-color="#F9AE17"/><stop offset=".69" stop-color="#F9AF17"/><stop offset=".69" stop-color="#F9B016"/><stop offset=".7" stop-color="#F9B116"/><stop offset=".71" stop-color="#F9B216"/><stop offset=".72" stop-color="#FAB215"/><stop offset=".73" stop-color="#FAB315"/><stop offset=".73" stop-color="#FAB414"/><stop offset=".74" stop-color="#FAB514"/><stop offset=".75" stop-color="#FAB614"/><stop offset=".76" stop-color="#FAB613"/><stop offset=".77" stop-color="#FAB713"/><stop offset=".77" stop-color="#FBB812"/><stop offset=".78" stop-color="#FBB912"/><stop offset=".79" stop-color="#FBBA11"/><stop offset=".8" stop-color="#FBBA11"/><stop offset=".81" stop-color="#FBBB11"/><stop offset=".81" stop-color="#FBBC10"/><stop offset=".82" stop-color="#FBBD10"/><stop offset=".83" stop-color="#FCBE0F"/><stop offset=".84" stop-color="#FCBE0F"/><stop offset=".84" stop-color="#FCBF0E"/><stop offset=".85" stop-color="#FCC00E"/><stop offset=".86" stop-color="#FCC10E"/><stop offset=".87" stop-color="#FCC20D"/><stop offset=".88" stop-color="#FCC20D"/><stop offset=".88" stop-color="#FDC30C"/><stop offset=".89" stop-color="#FDC40C"/><stop offset=".9" stop-color="#FDC50B"/><stop offset=".91" stop-color="#FDC60B"/><stop offset=".94" stop-color="#FDC60B"/><stop offset="1" stop-color="#FDC60B"/></linearGradient><clipPath id="a"><path fill="#fff" d="M0 0h20v20H0z"/></clipPath></defs></svg>