<svg width="100" height="26" viewBox="0 0 100 26" fill="none" xmlns="http://www.w3.org/2000/svg">
<path d="M3.17927 10.6443L13.6873 0.136281L13.9275 6.25462L3.17927 17.0028L3.17927 10.6443Z" fill="black"/>
<path d="M14.8 7.60759L4.29204 18.1156L10.4104 18.3558L21.1586 7.60759L14.8 7.60759Z" fill="black"/>
<path d="M11.7634 19.2284L22.2714 8.72039L22.5116 14.8387L11.7634 25.5869L11.7634 19.2284Z" fill="black"/>
<mask id="path-4-outside-1_1_17" maskUnits="userSpaceOnUse" x="29.2584" y="6.98703" width="71" height="12" fill="black">
<rect fill="white" x="29.2584" y="6.98703" width="71" height="12"/>
<path d="M40.9195 11.144C40.9195 10.6508 40.8661 10.2602 40.7592 9.9725C40.6523 9.68475 40.4755 9.46688 40.2289 9.3189C39.9823 9.17091 39.6575 9.07637 39.2547 9.03526C38.8518 8.99415 38.3544 8.9736 37.7625 8.9736H34.5931C34.067 8.9736 33.623 8.99004 33.2613 9.02293C32.9036 9.0517 32.6077 9.11336 32.3733 9.20791C32.139 9.30245 31.9582 9.43811 31.8307 9.61487C31.7033 9.79163 31.6108 10.0259 31.5533 10.3178C31.4957 10.6097 31.4628 10.9693 31.4546 11.3969C31.4464 11.8203 31.4423 12.3279 31.4423 12.9199C31.4423 13.5118 31.4464 14.0215 31.4546 14.4491C31.4669 14.8725 31.5019 15.2301 31.5594 15.5219C31.617 15.8138 31.7074 16.0481 31.8307 16.2249C31.9582 16.4016 32.139 16.5373 32.3733 16.6318C32.6077 16.7264 32.9036 16.7901 33.2613 16.823C33.623 16.8518 34.067 16.8661 34.5931 16.8661H37.7686C38.229 16.8661 38.6257 16.8538 38.9587 16.8292C39.2917 16.8045 39.5753 16.7593 39.8096 16.6935C40.0439 16.6277 40.233 16.5373 40.3769 16.4222C40.5208 16.3071 40.6318 16.1632 40.7099 15.9906C40.7921 15.8138 40.8476 15.6042 40.8763 15.3616C40.9051 15.115 40.9195 14.8272 40.9195 14.4984V13.9064H36.1716V12.9199H42.1034V14.4984C42.1034 14.893 42.0787 15.2506 42.0294 15.5713C41.9801 15.8878 41.8917 16.1714 41.7643 16.4222C41.6409 16.6688 41.4744 16.8826 41.2648 17.0635C41.0552 17.2443 40.79 17.3944 40.4694 17.5136C40.1487 17.6287 39.7664 17.713 39.3225 17.7664C38.8785 17.8239 38.3606 17.8527 37.7686 17.8527H34.5931C33.8696 17.8527 33.2592 17.8075 32.7618 17.7171C32.2685 17.6307 31.8616 17.4992 31.5409 17.3224C31.2203 17.1416 30.9716 16.9155 30.7948 16.6442C30.6222 16.3729 30.4948 16.0543 30.4125 15.6884C30.3344 15.3226 30.2892 14.9095 30.2769 14.4491C30.2646 13.9887 30.2584 13.4789 30.2584 12.9199C30.2584 12.3608 30.2646 11.8511 30.2769 11.3907C30.2892 10.9303 30.3344 10.5172 30.4125 10.1513C30.4948 9.78546 30.6222 9.46688 30.7948 9.19558C30.9716 8.92427 31.2203 8.70024 31.5409 8.52348C31.8616 8.34261 32.2685 8.20901 32.7618 8.12268C33.2592 8.03225 33.8696 7.98703 34.5931 7.98703H37.7625C38.3544 7.98703 38.8724 8.0158 39.3163 8.07335C39.7603 8.12679 40.1426 8.21106 40.4632 8.32616C40.7838 8.43715 41.049 8.57897 41.2586 8.75162C41.4724 8.92427 41.6409 9.12775 41.7643 9.36206C41.8917 9.59637 41.9801 9.86151 42.0294 10.1575C42.0787 10.4535 42.1034 10.7823 42.1034 11.144H40.9195Z"/>
<path d="M43.4907 14.0544C43.4907 13.3268 43.5688 12.7246 43.7251 12.2478C43.8813 11.7709 44.132 11.3927 44.4773 11.1132C44.8226 10.8337 45.2707 10.6384 45.8215 10.5274C46.3723 10.4123 47.0424 10.3548 47.8316 10.3548C48.6209 10.3548 49.2909 10.4123 49.8418 10.5274C50.3926 10.6384 50.8407 10.8337 51.186 11.1132C51.5313 11.3927 51.782 11.7709 51.9382 12.2478C52.0944 12.7246 52.1726 13.3268 52.1726 14.0544C52.1726 14.782 52.0944 15.3863 51.9382 15.8672C51.782 16.3482 51.5313 16.7305 51.186 17.0141C50.8407 17.2978 50.3926 17.4992 49.8418 17.6184C49.2909 17.7335 48.6209 17.7911 47.8316 17.7911C47.0424 17.7911 46.3723 17.7335 45.8215 17.6184C45.2707 17.4992 44.8226 17.2978 44.4773 17.0141C44.132 16.7305 43.8813 16.3482 43.7251 15.8672C43.5688 15.3863 43.4907 14.782 43.4907 14.0544ZM44.6746 14.0544C44.6746 14.4491 44.689 14.7923 44.7178 15.0842C44.7466 15.376 44.8 15.6268 44.8781 15.8364C44.9603 16.0461 45.0734 16.2167 45.2172 16.3482C45.3611 16.4797 45.5502 16.5846 45.7845 16.6627C46.0188 16.7408 46.3025 16.7942 46.6354 16.823C46.9725 16.8518 47.3712 16.8661 47.8316 16.8661C48.2263 16.8661 48.5777 16.8579 48.886 16.8415C49.1985 16.8209 49.4698 16.7778 49.7 16.712C49.9343 16.6462 50.1336 16.5537 50.2981 16.4345C50.4625 16.3112 50.594 16.1447 50.6927 15.9351C50.7955 15.7254 50.8695 15.4685 50.9147 15.1643C50.964 14.856 50.9887 14.4861 50.9887 14.0544C50.9887 13.631 50.964 13.2713 50.9147 12.9754C50.8695 12.6753 50.7955 12.4245 50.6927 12.2231C50.594 12.0217 50.4625 11.8634 50.2981 11.7483C50.1336 11.6291 49.9343 11.5407 49.7 11.4832C49.4698 11.4215 49.1985 11.3825 48.886 11.366C48.5777 11.3496 48.2263 11.3414 47.8316 11.3414C47.437 11.3414 47.0835 11.3496 46.7711 11.366C46.4628 11.3825 46.1915 11.4215 45.9572 11.4832C45.727 11.5407 45.5297 11.6291 45.3652 11.7483C45.2008 11.8634 45.0672 12.0217 44.9644 12.2231C44.8658 12.4245 44.7918 12.6753 44.7425 12.9754C44.6972 13.2713 44.6746 13.631 44.6746 14.0544Z"/>
<path d="M57.6973 14.4182C57.1383 14.4182 56.6471 14.41 56.2236 14.3936C55.8002 14.3771 55.4344 14.3442 55.1261 14.2949C54.8219 14.2415 54.567 14.1675 54.3615 14.0729C54.1601 13.9784 53.9998 13.853 53.8805 13.6968C53.7613 13.5365 53.6771 13.3412 53.6277 13.111C53.5784 12.8767 53.5537 12.6239 53.5537 12.3526C53.5537 11.9826 53.6319 11.6723 53.7881 11.4215C53.9443 11.1667 54.195 10.9611 54.5403 10.8049C54.8856 10.6446 55.3337 10.5295 55.8845 10.4596C56.4354 10.3897 57.1054 10.3548 57.8947 10.3548C58.6757 10.3548 59.319 10.3959 59.8246 10.4781C60.3344 10.5603 60.7372 10.6878 61.0332 10.8604C61.3333 11.029 61.5429 11.2427 61.6621 11.5017C61.7813 11.7607 61.8409 12.069 61.8409 12.4266H60.657C60.657 12.2046 60.6139 12.0237 60.5276 11.884C60.4453 11.7442 60.2994 11.6353 60.0898 11.5572C59.8801 11.475 59.5965 11.4195 59.2389 11.3907C58.8853 11.3578 58.4373 11.3414 57.8947 11.3414C57.3027 11.3414 56.8053 11.3496 56.4025 11.366C55.9996 11.3825 55.6749 11.4236 55.4282 11.4893C55.1816 11.5551 55.0048 11.6558 54.8979 11.7915C54.7911 11.9271 54.7376 12.1142 54.7376 12.3526C54.7376 12.4924 54.7459 12.6301 54.7623 12.7657C54.7828 12.8973 54.826 13.0062 54.8918 13.0925C54.9576 13.1788 55.0542 13.2446 55.1816 13.2898C55.309 13.3351 55.4817 13.37 55.6995 13.3947C55.9215 13.4152 56.1949 13.4275 56.5196 13.4317C56.8444 13.4317 57.2369 13.4317 57.6973 13.4317C58.2564 13.4317 58.7456 13.444 59.1649 13.4687C59.5883 13.4933 59.9541 13.5365 60.2624 13.5981C60.5707 13.6598 60.8256 13.7543 61.027 13.8818C61.2284 14.0092 61.3887 14.149 61.508 14.3011C61.6313 14.4491 61.7176 14.6258 61.7669 14.8314C61.8163 15.0328 61.8409 15.2671 61.8409 15.5343C61.8409 15.8015 61.8163 16.042 61.7669 16.2557C61.7176 16.4654 61.6313 16.6524 61.508 16.8168C61.3846 16.9771 61.2161 17.1169 61.0023 17.2361C60.7927 17.3512 60.5276 17.4458 60.2069 17.5198C59.8863 17.5896 59.5019 17.641 59.0539 17.6739C58.6099 17.7109 58.092 17.7294 57.5 17.7294C56.7601 17.7294 56.1373 17.6924 55.6317 17.6184C55.1302 17.5444 54.7253 17.4273 54.417 17.2669C54.1087 17.1025 53.8867 16.8908 53.7511 16.6318C53.6195 16.3729 53.5537 16.0563 53.5537 15.6823H54.7376C54.7376 15.9289 54.7787 16.1303 54.861 16.2865C54.9473 16.4386 55.0953 16.5578 55.3049 16.6442C55.5146 16.7305 55.7961 16.7901 56.1497 16.823C56.5073 16.8518 56.9574 16.8661 57.5 16.8661C57.9933 16.8661 58.4126 16.8559 58.7579 16.8353C59.1073 16.8107 59.3992 16.7737 59.6335 16.7243C59.8678 16.675 60.0528 16.6154 60.1884 16.5455C60.3241 16.4756 60.4268 16.3914 60.4967 16.2927C60.5666 16.194 60.6098 16.0851 60.6262 15.9659C60.6468 15.8426 60.657 15.7069 60.657 15.5589C60.657 15.4233 60.6468 15.3041 60.6262 15.2013C60.6098 15.0944 60.5687 14.9896 60.5029 14.8868C60.4371 14.78 60.3405 14.6998 60.2131 14.6464C60.0857 14.5929 59.9109 14.5498 59.689 14.5169C59.4711 14.4799 59.1998 14.4552 58.8751 14.4429C58.5503 14.4264 58.1577 14.4182 57.6973 14.4182Z"/>
<path d="M70.3254 14.4984C70.3254 15.1027 70.2761 15.6083 70.1774 16.0152C70.0788 16.4181 69.9123 16.7408 69.678 16.9833C69.4478 17.2258 69.1436 17.3985 68.7654 17.5013C68.3872 17.604 67.9207 17.6554 67.3657 17.6554C66.8272 17.6554 66.375 17.6143 66.0092 17.5321C65.6433 17.4499 65.3474 17.3101 65.1213 17.1128C64.8952 16.9155 64.7328 16.6524 64.6341 16.3235C64.5355 15.9947 64.4862 15.5836 64.4862 15.0903V11.5263H63.0248V10.5521H64.4862V8.6098H65.67V10.5521H70.1281V11.5263H65.67V15.0903C65.67 15.485 65.6988 15.7891 65.7564 16.0029C65.818 16.2167 65.9146 16.3729 66.0462 16.4715C66.1777 16.5702 66.3504 16.6277 66.5641 16.6442C66.782 16.6606 67.0471 16.6688 67.3595 16.6688C67.6062 16.6688 67.8261 16.6647 68.0193 16.6565C68.2166 16.6483 68.3872 16.6236 68.5311 16.5825C68.6791 16.5373 68.8045 16.4715 68.9072 16.3852C69.01 16.2948 69.0922 16.1694 69.1539 16.0091C69.2196 15.8488 69.2669 15.6473 69.2957 15.4048C69.3245 15.1582 69.3388 14.856 69.3388 14.4984H70.3254Z"/>
<path d="M78.5818 16.6812C78.5694 16.7305 78.4769 16.8538 78.3043 17.0511C78.181 17.1991 78.0165 17.3307 77.811 17.4458C77.6055 17.5567 77.3301 17.6431 76.9848 17.7047C76.6436 17.7705 76.1934 17.8034 75.6344 17.8034C74.8904 17.8034 74.2552 17.7643 73.7291 17.6862C73.2029 17.6122 72.7733 17.4971 72.4404 17.3409C72.1074 17.1806 71.8628 16.9771 71.7066 16.7305C71.5545 16.4839 71.4785 16.1899 71.4785 15.8487C71.4785 15.4911 71.5196 15.189 71.6018 14.9423C71.6881 14.6916 71.8114 14.4819 71.9718 14.3134C72.1362 14.1449 72.3335 14.0133 72.5637 13.9188C72.7939 13.8242 73.0549 13.7523 73.3468 13.703C73.6428 13.6536 73.9654 13.6228 74.3149 13.6105C74.6643 13.5981 75.0363 13.592 75.4309 13.592C75.9941 13.592 76.4647 13.6166 76.8429 13.666C77.2211 13.7112 77.5294 13.7708 77.7678 13.8448C78.0104 13.9147 78.1933 13.9907 78.3166 14.0729C78.4399 14.1551 78.5283 14.2312 78.5818 14.3011C78.5818 13.8407 78.5612 13.4481 78.5201 13.1234C78.4831 12.7986 78.4194 12.5273 78.329 12.3094C78.2426 12.0916 78.1296 11.9189 77.9898 11.7915C77.8501 11.6599 77.6774 11.5613 77.4719 11.4955C77.2704 11.4297 77.0341 11.3886 76.7628 11.3722C76.4915 11.3516 76.1811 11.3414 75.8317 11.3414C75.2891 11.3414 74.839 11.3558 74.4813 11.3845C74.1237 11.4092 73.8401 11.4606 73.6304 11.5387C73.4208 11.6168 73.2728 11.7257 73.1865 11.8655C73.1001 12.0011 73.057 12.1799 73.057 12.4019H71.8731C71.8731 12.0279 71.9389 11.7113 72.0704 11.4524C72.2061 11.1934 72.428 10.9837 72.7363 10.8234C73.0488 10.659 73.4578 10.5398 73.9634 10.4658C74.469 10.3918 75.0918 10.3548 75.8317 10.3548C76.5552 10.3548 77.1677 10.4144 77.6692 10.5336C78.1707 10.6528 78.5756 10.8625 78.8839 11.1625C79.1963 11.4626 79.4203 11.8675 79.556 12.3773C79.6958 12.8829 79.7656 13.5241 79.7656 14.3011V17.6554H78.5818V16.6812ZM75.8317 16.8661C76.3538 16.8661 76.7895 16.8415 77.1389 16.7922C77.4924 16.7428 77.7761 16.6688 77.9898 16.5702C78.2036 16.4715 78.3557 16.3482 78.4461 16.2002C78.5365 16.0522 78.5818 15.8796 78.5818 15.6823C78.5818 15.485 78.5283 15.3185 78.4214 15.1828C78.3187 15.0431 78.144 14.93 77.8973 14.8437C77.6548 14.7574 77.3321 14.6957 76.9293 14.6587C76.5264 14.6176 76.029 14.597 75.4371 14.597C74.8451 14.597 74.3662 14.6073 74.0004 14.6279C73.6386 14.6484 73.3591 14.6957 73.1618 14.7697C72.9645 14.8437 72.8309 14.9526 72.761 15.0965C72.6952 15.2404 72.6623 15.4356 72.6623 15.6823C72.6623 15.9289 72.6973 16.1303 72.7672 16.2865C72.8412 16.4386 72.9892 16.5578 73.2111 16.6442C73.4331 16.7305 73.7517 16.7901 74.1669 16.823C74.5862 16.8518 75.1411 16.8661 75.8317 16.8661Z"/>
<path d="M81.153 14.1161C81.153 13.6228 81.1777 13.1871 81.227 12.8089C81.2763 12.4307 81.3627 12.1018 81.486 11.8223C81.6134 11.5428 81.7819 11.3105 81.9916 11.1256C82.2053 10.9365 82.4725 10.7844 82.7932 10.6693C83.1179 10.5542 83.5023 10.4719 83.9462 10.4226C84.3902 10.3733 84.9081 10.3486 85.5001 10.3486C86.2893 10.3486 86.9388 10.398 87.4485 10.4966C87.9583 10.5912 88.3611 10.7391 88.6571 10.9406C88.9531 11.1379 89.1586 11.3907 89.2737 11.699C89.3888 12.0032 89.4464 12.367 89.4464 12.7904H88.2625C88.2625 12.6383 88.2584 12.4965 88.2501 12.3649C88.2419 12.2334 88.2111 12.1142 88.1576 12.0073C88.1083 11.9004 88.0282 11.8059 87.9172 11.7237C87.8062 11.6373 87.6479 11.5654 87.4424 11.5078C87.2369 11.4503 86.9758 11.4071 86.6593 11.3784C86.3469 11.3496 85.9605 11.3352 85.5001 11.3352C84.9739 11.3352 84.5299 11.3537 84.1682 11.3907C83.8106 11.4277 83.5146 11.4893 83.2803 11.5757C83.046 11.6579 82.8651 11.7709 82.7377 11.9148C82.6103 12.0546 82.5178 12.2272 82.4602 12.4328C82.4027 12.6383 82.3677 12.8808 82.3554 13.1603C82.3472 13.4358 82.3431 13.7543 82.3431 14.1161C82.3431 14.4696 82.3472 14.7841 82.3554 15.0595C82.3677 15.3308 82.4027 15.5692 82.4602 15.7748C82.5178 15.9762 82.6103 16.1468 82.7377 16.2865C82.8651 16.4263 83.046 16.5393 83.2803 16.6257C83.5146 16.712 83.8106 16.7737 84.1682 16.8107C84.5299 16.8477 84.9739 16.8661 85.5001 16.8661C85.9605 16.8661 86.3469 16.8497 86.6593 16.8168C86.9758 16.7839 87.2369 16.7367 87.4424 16.675C87.6479 16.6133 87.8062 16.5373 87.9172 16.4469C88.0282 16.3564 88.1083 16.2537 88.1576 16.1386C88.2111 16.0193 88.2419 15.8899 88.2501 15.7501C88.2584 15.6062 88.2625 15.4521 88.2625 15.2876H89.4464C89.4464 15.7193 89.3888 16.0933 89.2737 16.4099C89.1586 16.7264 88.9531 16.9874 88.6571 17.1929C88.3611 17.3944 87.9583 17.5444 87.4485 17.6431C86.9388 17.7417 86.2893 17.7911 85.5001 17.7911C84.9081 17.7911 84.3902 17.7664 83.9462 17.7171C83.5023 17.6677 83.1179 17.5876 82.7932 17.4766C82.4725 17.3615 82.2053 17.2114 81.9916 17.0265C81.7819 16.8415 81.6134 16.6133 81.486 16.342C81.3627 16.0707 81.2763 15.7521 81.227 15.3863C81.1777 15.0163 81.153 14.5929 81.153 14.1161Z"/>
<path d="M91.031 8.18434H92.2149V13.3638H92.6095L96.9504 10.5521H98.7263L93.6948 13.8571L98.9236 17.6554H97.1478L92.6095 14.2517H92.2149V17.6554H91.031V8.18434Z"/>
</mask>
<path d="M40.9195 11.144C40.9195 10.6508 40.8661 10.2602 40.7592 9.9725C40.6523 9.68475 40.4755 9.46688 40.2289 9.3189C39.9823 9.17091 39.6575 9.07637 39.2547 9.03526C38.8518 8.99415 38.3544 8.9736 37.7625 8.9736H34.5931C34.067 8.9736 33.623 8.99004 33.2613 9.02293C32.9036 9.0517 32.6077 9.11336 32.3733 9.20791C32.139 9.30245 31.9582 9.43811 31.8307 9.61487C31.7033 9.79163 31.6108 10.0259 31.5533 10.3178C31.4957 10.6097 31.4628 10.9693 31.4546 11.3969C31.4464 11.8203 31.4423 12.3279 31.4423 12.9199C31.4423 13.5118 31.4464 14.0215 31.4546 14.4491C31.4669 14.8725 31.5019 15.2301 31.5594 15.5219C31.617 15.8138 31.7074 16.0481 31.8307 16.2249C31.9582 16.4016 32.139 16.5373 32.3733 16.6318C32.6077 16.7264 32.9036 16.7901 33.2613 16.823C33.623 16.8518 34.067 16.8661 34.5931 16.8661H37.7686C38.229 16.8661 38.6257 16.8538 38.9587 16.8292C39.2917 16.8045 39.5753 16.7593 39.8096 16.6935C40.0439 16.6277 40.233 16.5373 40.3769 16.4222C40.5208 16.3071 40.6318 16.1632 40.7099 15.9906C40.7921 15.8138 40.8476 15.6042 40.8763 15.3616C40.9051 15.115 40.9195 14.8272 40.9195 14.4984V13.9064H36.1716V12.9199H42.1034V14.4984C42.1034 14.893 42.0787 15.2506 42.0294 15.5713C41.9801 15.8878 41.8917 16.1714 41.7643 16.4222C41.6409 16.6688 41.4744 16.8826 41.2648 17.0635C41.0552 17.2443 40.79 17.3944 40.4694 17.5136C40.1487 17.6287 39.7664 17.713 39.3225 17.7664C38.8785 17.8239 38.3606 17.8527 37.7686 17.8527H34.5931C33.8696 17.8527 33.2592 17.8075 32.7618 17.7171C32.2685 17.6307 31.8616 17.4992 31.5409 17.3224C31.2203 17.1416 30.9716 16.9155 30.7948 16.6442C30.6222 16.3729 30.4948 16.0543 30.4125 15.6884C30.3344 15.3226 30.2892 14.9095 30.2769 14.4491C30.2646 13.9887 30.2584 13.4789 30.2584 12.9199C30.2584 12.3608 30.2646 11.8511 30.2769 11.3907C30.2892 10.9303 30.3344 10.5172 30.4125 10.1513C30.4948 9.78546 30.6222 9.46688 30.7948 9.19558C30.9716 8.92427 31.2203 8.70024 31.5409 8.52348C31.8616 8.34261 32.2685 8.20901 32.7618 8.12268C33.2592 8.03225 33.8696 7.98703 34.5931 7.98703H37.7625C38.3544 7.98703 38.8724 8.0158 39.3163 8.07335C39.7603 8.12679 40.1426 8.21106 40.4632 8.32616C40.7838 8.43715 41.049 8.57897 41.2586 8.75162C41.4724 8.92427 41.6409 9.12775 41.7643 9.36206C41.8917 9.59637 41.9801 9.86151 42.0294 10.1575C42.0787 10.4535 42.1034 10.7823 42.1034 11.144H40.9195Z" fill="black"/>
<path d="M43.4907 14.0544C43.4907 13.3268 43.5688 12.7246 43.7251 12.2478C43.8813 11.7709 44.132 11.3927 44.4773 11.1132C44.8226 10.8337 45.2707 10.6384 45.8215 10.5274C46.3723 10.4123 47.0424 10.3548 47.8316 10.3548C48.6209 10.3548 49.2909 10.4123 49.8418 10.5274C50.3926 10.6384 50.8407 10.8337 51.186 11.1132C51.5313 11.3927 51.782 11.7709 51.9382 12.2478C52.0944 12.7246 52.1726 13.3268 52.1726 14.0544C52.1726 14.782 52.0944 15.3863 51.9382 15.8672C51.782 16.3482 51.5313 16.7305 51.186 17.0141C50.8407 17.2978 50.3926 17.4992 49.8418 17.6184C49.2909 17.7335 48.6209 17.7911 47.8316 17.7911C47.0424 17.7911 46.3723 17.7335 45.8215 17.6184C45.2707 17.4992 44.8226 17.2978 44.4773 17.0141C44.132 16.7305 43.8813 16.3482 43.7251 15.8672C43.5688 15.3863 43.4907 14.782 43.4907 14.0544ZM44.6746 14.0544C44.6746 14.4491 44.689 14.7923 44.7178 15.0842C44.7466 15.376 44.8 15.6268 44.8781 15.8364C44.9603 16.0461 45.0734 16.2167 45.2172 16.3482C45.3611 16.4797 45.5502 16.5846 45.7845 16.6627C46.0188 16.7408 46.3025 16.7942 46.6354 16.823C46.9725 16.8518 47.3712 16.8661 47.8316 16.8661C48.2263 16.8661 48.5777 16.8579 48.886 16.8415C49.1985 16.8209 49.4698 16.7778 49.7 16.712C49.9343 16.6462 50.1336 16.5537 50.2981 16.4345C50.4625 16.3112 50.594 16.1447 50.6927 15.9351C50.7955 15.7254 50.8695 15.4685 50.9147 15.1643C50.964 14.856 50.9887 14.4861 50.9887 14.0544C50.9887 13.631 50.964 13.2713 50.9147 12.9754C50.8695 12.6753 50.7955 12.4245 50.6927 12.2231C50.594 12.0217 50.4625 11.8634 50.2981 11.7483C50.1336 11.6291 49.9343 11.5407 49.7 11.4832C49.4698 11.4215 49.1985 11.3825 48.886 11.366C48.5777 11.3496 48.2263 11.3414 47.8316 11.3414C47.437 11.3414 47.0835 11.3496 46.7711 11.366C46.4628 11.3825 46.1915 11.4215 45.9572 11.4832C45.727 11.5407 45.5297 11.6291 45.3652 11.7483C45.2008 11.8634 45.0672 12.0217 44.9644 12.2231C44.8658 12.4245 44.7918 12.6753 44.7425 12.9754C44.6972 13.2713 44.6746 13.631 44.6746 14.0544Z" fill="black"/>
<path d="M57.6973 14.4182C57.1383 14.4182 56.6471 14.41 56.2236 14.3936C55.8002 14.3771 55.4344 14.3442 55.1261 14.2949C54.8219 14.2415 54.567 14.1675 54.3615 14.0729C54.1601 13.9784 53.9998 13.853 53.8805 13.6968C53.7613 13.5365 53.6771 13.3412 53.6277 13.111C53.5784 12.8767 53.5537 12.6239 53.5537 12.3526C53.5537 11.9826 53.6319 11.6723 53.7881 11.4215C53.9443 11.1667 54.195 10.9611 54.5403 10.8049C54.8856 10.6446 55.3337 10.5295 55.8845 10.4596C56.4354 10.3897 57.1054 10.3548 57.8947 10.3548C58.6757 10.3548 59.319 10.3959 59.8246 10.4781C60.3344 10.5603 60.7372 10.6878 61.0332 10.8604C61.3333 11.029 61.5429 11.2427 61.6621 11.5017C61.7813 11.7607 61.8409 12.069 61.8409 12.4266H60.657C60.657 12.2046 60.6139 12.0237 60.5276 11.884C60.4453 11.7442 60.2994 11.6353 60.0898 11.5572C59.8801 11.475 59.5965 11.4195 59.2389 11.3907C58.8853 11.3578 58.4373 11.3414 57.8947 11.3414C57.3027 11.3414 56.8053 11.3496 56.4025 11.366C55.9996 11.3825 55.6749 11.4236 55.4282 11.4893C55.1816 11.5551 55.0048 11.6558 54.8979 11.7915C54.7911 11.9271 54.7376 12.1142 54.7376 12.3526C54.7376 12.4924 54.7459 12.6301 54.7623 12.7657C54.7828 12.8973 54.826 13.0062 54.8918 13.0925C54.9576 13.1788 55.0542 13.2446 55.1816 13.2898C55.309 13.3351 55.4817 13.37 55.6995 13.3947C55.9215 13.4152 56.1949 13.4275 56.5196 13.4317C56.8444 13.4317 57.2369 13.4317 57.6973 13.4317C58.2564 13.4317 58.7456 13.444 59.1649 13.4687C59.5883 13.4933 59.9541 13.5365 60.2624 13.5981C60.5707 13.6598 60.8256 13.7543 61.027 13.8818C61.2284 14.0092 61.3887 14.149 61.508 14.3011C61.6313 14.4491 61.7176 14.6258 61.7669 14.8314C61.8163 15.0328 61.8409 15.2671 61.8409 15.5343C61.8409 15.8015 61.8163 16.042 61.7669 16.2557C61.7176 16.4654 61.6313 16.6524 61.508 16.8168C61.3846 16.9771 61.2161 17.1169 61.0023 17.2361C60.7927 17.3512 60.5276 17.4458 60.2069 17.5198C59.8863 17.5896 59.5019 17.641 59.0539 17.6739C58.6099 17.7109 58.092 17.7294 57.5 17.7294C56.7601 17.7294 56.1373 17.6924 55.6317 17.6184C55.1302 17.5444 54.7253 17.4273 54.417 17.2669C54.1087 17.1025 53.8867 16.8908 53.7511 16.6318C53.6195 16.3729 53.5537 16.0563 53.5537 15.6823H54.7376C54.7376 15.9289 54.7787 16.1303 54.861 16.2865C54.9473 16.4386 55.0953 16.5578 55.3049 16.6442C55.5146 16.7305 55.7961 16.7901 56.1497 16.823C56.5073 16.8518 56.9574 16.8661 57.5 16.8661C57.9933 16.8661 58.4126 16.8559 58.7579 16.8353C59.1073 16.8107 59.3992 16.7737 59.6335 16.7243C59.8678 16.675 60.0528 16.6154 60.1884 16.5455C60.3241 16.4756 60.4268 16.3914 60.4967 16.2927C60.5666 16.194 60.6098 16.0851 60.6262 15.9659C60.6468 15.8426 60.657 15.7069 60.657 15.5589C60.657 15.4233 60.6468 15.3041 60.6262 15.2013C60.6098 15.0944 60.5687 14.9896 60.5029 14.8868C60.4371 14.78 60.3405 14.6998 60.2131 14.6464C60.0857 14.5929 59.9109 14.5498 59.689 14.5169C59.4711 14.4799 59.1998 14.4552 58.8751 14.4429C58.5503 14.4264 58.1577 14.4182 57.6973 14.4182Z" fill="black"/>
<path d="M70.3254 14.4984C70.3254 15.1027 70.2761 15.6083 70.1774 16.0152C70.0788 16.4181 69.9123 16.7408 69.678 16.9833C69.4478 17.2258 69.1436 17.3985 68.7654 17.5013C68.3872 17.604 67.9207 17.6554 67.3657 17.6554C66.8272 17.6554 66.375 17.6143 66.0092 17.5321C65.6433 17.4499 65.3474 17.3101 65.1213 17.1128C64.8952 16.9155 64.7328 16.6524 64.6341 16.3235C64.5355 15.9947 64.4862 15.5836 64.4862 15.0903V11.5263H63.0248V10.5521H64.4862V8.6098H65.67V10.5521H70.1281V11.5263H65.67V15.0903C65.67 15.485 65.6988 15.7891 65.7564 16.0029C65.818 16.2167 65.9146 16.3729 66.0462 16.4715C66.1777 16.5702 66.3504 16.6277 66.5641 16.6442C66.782 16.6606 67.0471 16.6688 67.3595 16.6688C67.6062 16.6688 67.8261 16.6647 68.0193 16.6565C68.2166 16.6483 68.3872 16.6236 68.5311 16.5825C68.6791 16.5373 68.8045 16.4715 68.9072 16.3852C69.01 16.2948 69.0922 16.1694 69.1539 16.0091C69.2196 15.8488 69.2669 15.6473 69.2957 15.4048C69.3245 15.1582 69.3388 14.856 69.3388 14.4984H70.3254Z" fill="black"/>
<path d="M78.5818 16.6812C78.5694 16.7305 78.4769 16.8538 78.3043 17.0511C78.181 17.1991 78.0165 17.3307 77.811 17.4458C77.6055 17.5567 77.3301 17.6431 76.9848 17.7047C76.6436 17.7705 76.1934 17.8034 75.6344 17.8034C74.8904 17.8034 74.2552 17.7643 73.7291 17.6862C73.2029 17.6122 72.7733 17.4971 72.4404 17.3409C72.1074 17.1806 71.8628 16.9771 71.7066 16.7305C71.5545 16.4839 71.4785 16.1899 71.4785 15.8487C71.4785 15.4911 71.5196 15.189 71.6018 14.9423C71.6881 14.6916 71.8114 14.4819 71.9718 14.3134C72.1362 14.1449 72.3335 14.0133 72.5637 13.9188C72.7939 13.8242 73.0549 13.7523 73.3468 13.703C73.6428 13.6536 73.9654 13.6228 74.3149 13.6105C74.6643 13.5981 75.0363 13.592 75.4309 13.592C75.9941 13.592 76.4647 13.6166 76.8429 13.666C77.2211 13.7112 77.5294 13.7708 77.7678 13.8448C78.0104 13.9147 78.1933 13.9907 78.3166 14.0729C78.4399 14.1551 78.5283 14.2312 78.5818 14.3011C78.5818 13.8407 78.5612 13.4481 78.5201 13.1234C78.4831 12.7986 78.4194 12.5273 78.329 12.3094C78.2426 12.0916 78.1296 11.9189 77.9898 11.7915C77.8501 11.6599 77.6774 11.5613 77.4719 11.4955C77.2704 11.4297 77.0341 11.3886 76.7628 11.3722C76.4915 11.3516 76.1811 11.3414 75.8317 11.3414C75.2891 11.3414 74.839 11.3558 74.4813 11.3845C74.1237 11.4092 73.8401 11.4606 73.6304 11.5387C73.4208 11.6168 73.2728 11.7257 73.1865 11.8655C73.1001 12.0011 73.057 12.1799 73.057 12.4019H71.8731C71.8731 12.0279 71.9389 11.7113 72.0704 11.4524C72.2061 11.1934 72.428 10.9837 72.7363 10.8234C73.0488 10.659 73.4578 10.5398 73.9634 10.4658C74.469 10.3918 75.0918 10.3548 75.8317 10.3548C76.5552 10.3548 77.1677 10.4144 77.6692 10.5336C78.1707 10.6528 78.5756 10.8625 78.8839 11.1625C79.1963 11.4626 79.4203 11.8675 79.556 12.3773C79.6958 12.8829 79.7656 13.5241 79.7656 14.3011V17.6554H78.5818V16.6812ZM75.8317 16.8661C76.3538 16.8661 76.7895 16.8415 77.1389 16.7922C77.4924 16.7428 77.7761 16.6688 77.9898 16.5702C78.2036 16.4715 78.3557 16.3482 78.4461 16.2002C78.5365 16.0522 78.5818 15.8796 78.5818 15.6823C78.5818 15.485 78.5283 15.3185 78.4214 15.1828C78.3187 15.0431 78.144 14.93 77.8973 14.8437C77.6548 14.7574 77.3321 14.6957 76.9293 14.6587C76.5264 14.6176 76.029 14.597 75.4371 14.597C74.8451 14.597 74.3662 14.6073 74.0004 14.6279C73.6386 14.6484 73.3591 14.6957 73.1618 14.7697C72.9645 14.8437 72.8309 14.9526 72.761 15.0965C72.6952 15.2404 72.6623 15.4356 72.6623 15.6823C72.6623 15.9289 72.6973 16.1303 72.7672 16.2865C72.8412 16.4386 72.9892 16.5578 73.2111 16.6442C73.4331 16.7305 73.7517 16.7901 74.1669 16.823C74.5862 16.8518 75.1411 16.8661 75.8317 16.8661Z" fill="black"/>
<path d="M81.153 14.1161C81.153 13.6228 81.1777 13.1871 81.227 12.8089C81.2763 12.4307 81.3627 12.1018 81.486 11.8223C81.6134 11.5428 81.7819 11.3105 81.9916 11.1256C82.2053 10.9365 82.4725 10.7844 82.7932 10.6693C83.1179 10.5542 83.5023 10.4719 83.9462 10.4226C84.3902 10.3733 84.9081 10.3486 85.5001 10.3486C86.2893 10.3486 86.9388 10.398 87.4485 10.4966C87.9583 10.5912 88.3611 10.7391 88.6571 10.9406C88.9531 11.1379 89.1586 11.3907 89.2737 11.699C89.3888 12.0032 89.4464 12.367 89.4464 12.7904H88.2625C88.2625 12.6383 88.2584 12.4965 88.2501 12.3649C88.2419 12.2334 88.2111 12.1142 88.1576 12.0073C88.1083 11.9004 88.0282 11.8059 87.9172 11.7237C87.8062 11.6373 87.6479 11.5654 87.4424 11.5078C87.2369 11.4503 86.9758 11.4071 86.6593 11.3784C86.3469 11.3496 85.9605 11.3352 85.5001 11.3352C84.9739 11.3352 84.5299 11.3537 84.1682 11.3907C83.8106 11.4277 83.5146 11.4893 83.2803 11.5757C83.046 11.6579 82.8651 11.7709 82.7377 11.9148C82.6103 12.0546 82.5178 12.2272 82.4602 12.4328C82.4027 12.6383 82.3677 12.8808 82.3554 13.1603C82.3472 13.4358 82.3431 13.7543 82.3431 14.1161C82.3431 14.4696 82.3472 14.7841 82.3554 15.0595C82.3677 15.3308 82.4027 15.5692 82.4602 15.7748C82.5178 15.9762 82.6103 16.1468 82.7377 16.2865C82.8651 16.4263 83.046 16.5393 83.2803 16.6257C83.5146 16.712 83.8106 16.7737 84.1682 16.8107C84.5299 16.8477 84.9739 16.8661 85.5001 16.8661C85.9605 16.8661 86.3469 16.8497 86.6593 16.8168C86.9758 16.7839 87.2369 16.7367 87.4424 16.675C87.6479 16.6133 87.8062 16.5373 87.9172 16.4469C88.0282 16.3564 88.1083 16.2537 88.1576 16.1386C88.2111 16.0193 88.2419 15.8899 88.2501 15.7501C88.2584 15.6062 88.2625 15.4521 88.2625 15.2876H89.4464C89.4464 15.7193 89.3888 16.0933 89.2737 16.4099C89.1586 16.7264 88.9531 16.9874 88.6571 17.1929C88.3611 17.3944 87.9583 17.5444 87.4485 17.6431C86.9388 17.7417 86.2893 17.7911 85.5001 17.7911C84.9081 17.7911 84.3902 17.7664 83.9462 17.7171C83.5023 17.6677 83.1179 17.5876 82.7932 17.4766C82.4725 17.3615 82.2053 17.2114 81.9916 17.0265C81.7819 16.8415 81.6134 16.6133 81.486 16.342C81.3627 16.0707 81.2763 15.7521 81.227 15.3863C81.1777 15.0163 81.153 14.5929 81.153 14.1161Z" fill="black"/>
<path d="M91.031 8.18434H92.2149V13.3638H92.6095L96.9504 10.5521H98.7263L93.6948 13.8571L98.9236 17.6554H97.1478L92.6095 14.2517H92.2149V17.6554H91.031V8.18434Z" fill="black"/>
<path d="M40.9195 11.144C40.9195 10.6508 40.8661 10.2602 40.7592 9.9725C40.6523 9.68475 40.4755 9.46688 40.2289 9.3189C39.9823 9.17091 39.6575 9.07637 39.2547 9.03526C38.8518 8.99415 38.3544 8.9736 37.7625 8.9736H34.5931C34.067 8.9736 33.623 8.99004 33.2613 9.02293C32.9036 9.0517 32.6077 9.11336 32.3733 9.20791C32.139 9.30245 31.9582 9.43811 31.8307 9.61487C31.7033 9.79163 31.6108 10.0259 31.5533 10.3178C31.4957 10.6097 31.4628 10.9693 31.4546 11.3969C31.4464 11.8203 31.4423 12.3279 31.4423 12.9199C31.4423 13.5118 31.4464 14.0215 31.4546 14.4491C31.4669 14.8725 31.5019 15.2301 31.5594 15.5219C31.617 15.8138 31.7074 16.0481 31.8307 16.2249C31.9582 16.4016 32.139 16.5373 32.3733 16.6318C32.6077 16.7264 32.9036 16.7901 33.2613 16.823C33.623 16.8518 34.067 16.8661 34.5931 16.8661H37.7686C38.229 16.8661 38.6257 16.8538 38.9587 16.8292C39.2917 16.8045 39.5753 16.7593 39.8096 16.6935C40.0439 16.6277 40.233 16.5373 40.3769 16.4222C40.5208 16.3071 40.6318 16.1632 40.7099 15.9906C40.7921 15.8138 40.8476 15.6042 40.8763 15.3616C40.9051 15.115 40.9195 14.8272 40.9195 14.4984V13.9064H36.1716V12.9199H42.1034V14.4984C42.1034 14.893 42.0787 15.2506 42.0294 15.5713C41.9801 15.8878 41.8917 16.1714 41.7643 16.4222C41.6409 16.6688 41.4744 16.8826 41.2648 17.0635C41.0552 17.2443 40.79 17.3944 40.4694 17.5136C40.1487 17.6287 39.7664 17.713 39.3225 17.7664C38.8785 17.8239 38.3606 17.8527 37.7686 17.8527H34.5931C33.8696 17.8527 33.2592 17.8075 32.7618 17.7171C32.2685 17.6307 31.8616 17.4992 31.5409 17.3224C31.2203 17.1416 30.9716 16.9155 30.7948 16.6442C30.6222 16.3729 30.4948 16.0543 30.4125 15.6884C30.3344 15.3226 30.2892 14.9095 30.2769 14.4491C30.2646 13.9887 30.2584 13.4789 30.2584 12.9199C30.2584 12.3608 30.2646 11.8511 30.2769 11.3907C30.2892 10.9303 30.3344 10.5172 30.4125 10.1513C30.4948 9.78546 30.6222 9.46688 30.7948 9.19558C30.9716 8.92427 31.2203 8.70024 31.5409 8.52348C31.8616 8.34261 32.2685 8.20901 32.7618 8.12268C33.2592 8.03225 33.8696 7.98703 34.5931 7.98703H37.7625C38.3544 7.98703 38.8724 8.0158 39.3163 8.07335C39.7603 8.12679 40.1426 8.21106 40.4632 8.32616C40.7838 8.43715 41.049 8.57897 41.2586 8.75162C41.4724 8.92427 41.6409 9.12775 41.7643 9.36206C41.8917 9.59637 41.9801 9.86151 42.0294 10.1575C42.0787 10.4535 42.1034 10.7823 42.1034 11.144H40.9195Z" stroke="black" stroke-width="0.629487" mask="url(#path-4-outside-1_1_17)"/>
<path d="M43.4907 14.0544C43.4907 13.3268 43.5688 12.7246 43.7251 12.2478C43.8813 11.7709 44.132 11.3927 44.4773 11.1132C44.8226 10.8337 45.2707 10.6384 45.8215 10.5274C46.3723 10.4123 47.0424 10.3548 47.8316 10.3548C48.6209 10.3548 49.2909 10.4123 49.8418 10.5274C50.3926 10.6384 50.8407 10.8337 51.186 11.1132C51.5313 11.3927 51.782 11.7709 51.9382 12.2478C52.0944 12.7246 52.1726 13.3268 52.1726 14.0544C52.1726 14.782 52.0944 15.3863 51.9382 15.8672C51.782 16.3482 51.5313 16.7305 51.186 17.0141C50.8407 17.2978 50.3926 17.4992 49.8418 17.6184C49.2909 17.7335 48.6209 17.7911 47.8316 17.7911C47.0424 17.7911 46.3723 17.7335 45.8215 17.6184C45.2707 17.4992 44.8226 17.2978 44.4773 17.0141C44.132 16.7305 43.8813 16.3482 43.7251 15.8672C43.5688 15.3863 43.4907 14.782 43.4907 14.0544ZM44.6746 14.0544C44.6746 14.4491 44.689 14.7923 44.7178 15.0842C44.7466 15.376 44.8 15.6268 44.8781 15.8364C44.9603 16.0461 45.0734 16.2167 45.2172 16.3482C45.3611 16.4797 45.5502 16.5846 45.7845 16.6627C46.0188 16.7408 46.3025 16.7942 46.6354 16.823C46.9725 16.8518 47.3712 16.8661 47.8316 16.8661C48.2263 16.8661 48.5777 16.8579 48.886 16.8415C49.1985 16.8209 49.4698 16.7778 49.7 16.712C49.9343 16.6462 50.1336 16.5537 50.2981 16.4345C50.4625 16.3112 50.594 16.1447 50.6927 15.9351C50.7955 15.7254 50.8695 15.4685 50.9147 15.1643C50.964 14.856 50.9887 14.4861 50.9887 14.0544C50.9887 13.631 50.964 13.2713 50.9147 12.9754C50.8695 12.6753 50.7955 12.4245 50.6927 12.2231C50.594 12.0217 50.4625 11.8634 50.2981 11.7483C50.1336 11.6291 49.9343 11.5407 49.7 11.4832C49.4698 11.4215 49.1985 11.3825 48.886 11.366C48.5777 11.3496 48.2263 11.3414 47.8316 11.3414C47.437 11.3414 47.0835 11.3496 46.7711 11.366C46.4628 11.3825 46.1915 11.4215 45.9572 11.4832C45.727 11.5407 45.5297 11.6291 45.3652 11.7483C45.2008 11.8634 45.0672 12.0217 44.9644 12.2231C44.8658 12.4245 44.7918 12.6753 44.7425 12.9754C44.6972 13.2713 44.6746 13.631 44.6746 14.0544Z" stroke="black" stroke-width="0.629487" mask="url(#path-4-outside-1_1_17)"/>
<path d="M57.6973 14.4182C57.1383 14.4182 56.6471 14.41 56.2236 14.3936C55.8002 14.3771 55.4344 14.3442 55.1261 14.2949C54.8219 14.2415 54.567 14.1675 54.3615 14.0729C54.1601 13.9784 53.9998 13.853 53.8805 13.6968C53.7613 13.5365 53.6771 13.3412 53.6277 13.111C53.5784 12.8767 53.5537 12.6239 53.5537 12.3526C53.5537 11.9826 53.6319 11.6723 53.7881 11.4215C53.9443 11.1667 54.195 10.9611 54.5403 10.8049C54.8856 10.6446 55.3337 10.5295 55.8845 10.4596C56.4354 10.3897 57.1054 10.3548 57.8947 10.3548C58.6757 10.3548 59.319 10.3959 59.8246 10.4781C60.3344 10.5603 60.7372 10.6878 61.0332 10.8604C61.3333 11.029 61.5429 11.2427 61.6621 11.5017C61.7813 11.7607 61.8409 12.069 61.8409 12.4266H60.657C60.657 12.2046 60.6139 12.0237 60.5276 11.884C60.4453 11.7442 60.2994 11.6353 60.0898 11.5572C59.8801 11.475 59.5965 11.4195 59.2389 11.3907C58.8853 11.3578 58.4373 11.3414 57.8947 11.3414C57.3027 11.3414 56.8053 11.3496 56.4025 11.366C55.9996 11.3825 55.6749 11.4236 55.4282 11.4893C55.1816 11.5551 55.0048 11.6558 54.8979 11.7915C54.7911 11.9271 54.7376 12.1142 54.7376 12.3526C54.7376 12.4924 54.7459 12.6301 54.7623 12.7657C54.7828 12.8973 54.826 13.0062 54.8918 13.0925C54.9576 13.1788 55.0542 13.2446 55.1816 13.2898C55.309 13.3351 55.4817 13.37 55.6995 13.3947C55.9215 13.4152 56.1949 13.4275 56.5196 13.4317C56.8444 13.4317 57.2369 13.4317 57.6973 13.4317C58.2564 13.4317 58.7456 13.444 59.1649 13.4687C59.5883 13.4933 59.9541 13.5365 60.2624 13.5981C60.5707 13.6598 60.8256 13.7543 61.027 13.8818C61.2284 14.0092 61.3887 14.149 61.508 14.3011C61.6313 14.4491 61.7176 14.6258 61.7669 14.8314C61.8163 15.0328 61.8409 15.2671 61.8409 15.5343C61.8409 15.8015 61.8163 16.042 61.7669 16.2557C61.7176 16.4654 61.6313 16.6524 61.508 16.8168C61.3846 16.9771 61.2161 17.1169 61.0023 17.2361C60.7927 17.3512 60.5276 17.4458 60.2069 17.5198C59.8863 17.5896 59.5019 17.641 59.0539 17.6739C58.6099 17.7109 58.092 17.7294 57.5 17.7294C56.7601 17.7294 56.1373 17.6924 55.6317 17.6184C55.1302 17.5444 54.7253 17.4273 54.417 17.2669C54.1087 17.1025 53.8867 16.8908 53.7511 16.6318C53.6195 16.3729 53.5537 16.0563 53.5537 15.6823H54.7376C54.7376 15.9289 54.7787 16.1303 54.861 16.2865C54.9473 16.4386 55.0953 16.5578 55.3049 16.6442C55.5146 16.7305 55.7961 16.7901 56.1497 16.823C56.5073 16.8518 56.9574 16.8661 57.5 16.8661C57.9933 16.8661 58.4126 16.8559 58.7579 16.8353C59.1073 16.8107 59.3992 16.7737 59.6335 16.7243C59.8678 16.675 60.0528 16.6154 60.1884 16.5455C60.3241 16.4756 60.4268 16.3914 60.4967 16.2927C60.5666 16.194 60.6098 16.0851 60.6262 15.9659C60.6468 15.8426 60.657 15.7069 60.657 15.5589C60.657 15.4233 60.6468 15.3041 60.6262 15.2013C60.6098 15.0944 60.5687 14.9896 60.5029 14.8868C60.4371 14.78 60.3405 14.6998 60.2131 14.6464C60.0857 14.5929 59.9109 14.5498 59.689 14.5169C59.4711 14.4799 59.1998 14.4552 58.8751 14.4429C58.5503 14.4264 58.1577 14.4182 57.6973 14.4182Z" stroke="black" stroke-width="0.629487" mask="url(#path-4-outside-1_1_17)"/>
<path d="M70.3254 14.4984C70.3254 15.1027 70.2761 15.6083 70.1774 16.0152C70.0788 16.4181 69.9123 16.7408 69.678 16.9833C69.4478 17.2258 69.1436 17.3985 68.7654 17.5013C68.3872 17.604 67.9207 17.6554 67.3657 17.6554C66.8272 17.6554 66.375 17.6143 66.0092 17.5321C65.6433 17.4499 65.3474 17.3101 65.1213 17.1128C64.8952 16.9155 64.7328 16.6524 64.6341 16.3235C64.5355 15.9947 64.4862 15.5836 64.4862 15.0903V11.5263H63.0248V10.5521H64.4862V8.6098H65.67V10.5521H70.1281V11.5263H65.67V15.0903C65.67 15.485 65.6988 15.7891 65.7564 16.0029C65.818 16.2167 65.9146 16.3729 66.0462 16.4715C66.1777 16.5702 66.3504 16.6277 66.5641 16.6442C66.782 16.6606 67.0471 16.6688 67.3595 16.6688C67.6062 16.6688 67.8261 16.6647 68.0193 16.6565C68.2166 16.6483 68.3872 16.6236 68.5311 16.5825C68.6791 16.5373 68.8045 16.4715 68.9072 16.3852C69.01 16.2948 69.0922 16.1694 69.1539 16.0091C69.2196 15.8488 69.2669 15.6473 69.2957 15.4048C69.3245 15.1582 69.3388 14.856 69.3388 14.4984H70.3254Z" stroke="black" stroke-width="0.629487" mask="url(#path-4-outside-1_1_17)"/>
<path d="M78.5818 16.6812C78.5694 16.7305 78.4769 16.8538 78.3043 17.0511C78.181 17.1991 78.0165 17.3307 77.811 17.4458C77.6055 17.5567 77.3301 17.6431 76.9848 17.7047C76.6436 17.7705 76.1934 17.8034 75.6344 17.8034C74.8904 17.8034 74.2552 17.7643 73.7291 17.6862C73.2029 17.6122 72.7733 17.4971 72.4404 17.3409C72.1074 17.1806 71.8628 16.9771 71.7066 16.7305C71.5545 16.4839 71.4785 16.1899 71.4785 15.8487C71.4785 15.4911 71.5196 15.189 71.6018 14.9423C71.6881 14.6916 71.8114 14.4819 71.9718 14.3134C72.1362 14.1449 72.3335 14.0133 72.5637 13.9188C72.7939 13.8242 73.0549 13.7523 73.3468 13.703C73.6428 13.6536 73.9654 13.6228 74.3149 13.6105C74.6643 13.5981 75.0363 13.592 75.4309 13.592C75.9941 13.592 76.4647 13.6166 76.8429 13.666C77.2211 13.7112 77.5294 13.7708 77.7678 13.8448C78.0104 13.9147 78.1933 13.9907 78.3166 14.0729C78.4399 14.1551 78.5283 14.2312 78.5818 14.3011C78.5818 13.8407 78.5612 13.4481 78.5201 13.1234C78.4831 12.7986 78.4194 12.5273 78.329 12.3094C78.2426 12.0916 78.1296 11.9189 77.9898 11.7915C77.8501 11.6599 77.6774 11.5613 77.4719 11.4955C77.2704 11.4297 77.0341 11.3886 76.7628 11.3722C76.4915 11.3516 76.1811 11.3414 75.8317 11.3414C75.2891 11.3414 74.839 11.3558 74.4813 11.3845C74.1237 11.4092 73.8401 11.4606 73.6304 11.5387C73.4208 11.6168 73.2728 11.7257 73.1865 11.8655C73.1001 12.0011 73.057 12.1799 73.057 12.4019H71.8731C71.8731 12.0279 71.9389 11.7113 72.0704 11.4524C72.2061 11.1934 72.428 10.9837 72.7363 10.8234C73.0488 10.659 73.4578 10.5398 73.9634 10.4658C74.469 10.3918 75.0918 10.3548 75.8317 10.3548C76.5552 10.3548 77.1677 10.4144 77.6692 10.5336C78.1707 10.6528 78.5756 10.8625 78.8839 11.1625C79.1963 11.4626 79.4203 11.8675 79.556 12.3773C79.6958 12.8829 79.7656 13.5241 79.7656 14.3011V17.6554H78.5818V16.6812ZM75.8317 16.8661C76.3538 16.8661 76.7895 16.8415 77.1389 16.7922C77.4924 16.7428 77.7761 16.6688 77.9898 16.5702C78.2036 16.4715 78.3557 16.3482 78.4461 16.2002C78.5365 16.0522 78.5818 15.8796 78.5818 15.6823C78.5818 15.485 78.5283 15.3185 78.4214 15.1828C78.3187 15.0431 78.144 14.93 77.8973 14.8437C77.6548 14.7574 77.3321 14.6957 76.9293 14.6587C76.5264 14.6176 76.029 14.597 75.4371 14.597C74.8451 14.597 74.3662 14.6073 74.0004 14.6279C73.6386 14.6484 73.3591 14.6957 73.1618 14.7697C72.9645 14.8437 72.8309 14.9526 72.761 15.0965C72.6952 15.2404 72.6623 15.4356 72.6623 15.6823C72.6623 15.9289 72.6973 16.1303 72.7672 16.2865C72.8412 16.4386 72.9892 16.5578 73.2111 16.6442C73.4331 16.7305 73.7517 16.7901 74.1669 16.823C74.5862 16.8518 75.1411 16.8661 75.8317 16.8661Z" stroke="black" stroke-width="0.629487" mask="url(#path-4-outside-1_1_17)"/>
<path d="M81.153 14.1161C81.153 13.6228 81.1777 13.1871 81.227 12.8089C81.2763 12.4307 81.3627 12.1018 81.486 11.8223C81.6134 11.5428 81.7819 11.3105 81.9916 11.1256C82.2053 10.9365 82.4725 10.7844 82.7932 10.6693C83.1179 10.5542 83.5023 10.4719 83.9462 10.4226C84.3902 10.3733 84.9081 10.3486 85.5001 10.3486C86.2893 10.3486 86.9388 10.398 87.4485 10.4966C87.9583 10.5912 88.3611 10.7391 88.6571 10.9406C88.9531 11.1379 89.1586 11.3907 89.2737 11.699C89.3888 12.0032 89.4464 12.367 89.4464 12.7904H88.2625C88.2625 12.6383 88.2584 12.4965 88.2501 12.3649C88.2419 12.2334 88.2111 12.1142 88.1576 12.0073C88.1083 11.9004 88.0282 11.8059 87.9172 11.7237C87.8062 11.6373 87.6479 11.5654 87.4424 11.5078C87.2369 11.4503 86.9758 11.4071 86.6593 11.3784C86.3469 11.3496 85.9605 11.3352 85.5001 11.3352C84.9739 11.3352 84.5299 11.3537 84.1682 11.3907C83.8106 11.4277 83.5146 11.4893 83.2803 11.5757C83.046 11.6579 82.8651 11.7709 82.7377 11.9148C82.6103 12.0546 82.5178 12.2272 82.4602 12.4328C82.4027 12.6383 82.3677 12.8808 82.3554 13.1603C82.3472 13.4358 82.3431 13.7543 82.3431 14.1161C82.3431 14.4696 82.3472 14.7841 82.3554 15.0595C82.3677 15.3308 82.4027 15.5692 82.4602 15.7748C82.5178 15.9762 82.6103 16.1468 82.7377 16.2865C82.8651 16.4263 83.046 16.5393 83.2803 16.6257C83.5146 16.712 83.8106 16.7737 84.1682 16.8107C84.5299 16.8477 84.9739 16.8661 85.5001 16.8661C85.9605 16.8661 86.3469 16.8497 86.6593 16.8168C86.9758 16.7839 87.2369 16.7367 87.4424 16.675C87.6479 16.6133 87.8062 16.5373 87.9172 16.4469C88.0282 16.3564 88.1083 16.2537 88.1576 16.1386C88.2111 16.0193 88.2419 15.8899 88.2501 15.7501C88.2584 15.6062 88.2625 15.4521 88.2625 15.2876H89.4464C89.4464 15.7193 89.3888 16.0933 89.2737 16.4099C89.1586 16.7264 88.9531 16.9874 88.6571 17.1929C88.3611 17.3944 87.9583 17.5444 87.4485 17.6431C86.9388 17.7417 86.2893 17.7911 85.5001 17.7911C84.9081 17.7911 84.3902 17.7664 83.9462 17.7171C83.5023 17.6677 83.1179 17.5876 82.7932 17.4766C82.4725 17.3615 82.2053 17.2114 81.9916 17.0265C81.7819 16.8415 81.6134 16.6133 81.486 16.342C81.3627 16.0707 81.2763 15.7521 81.227 15.3863C81.1777 15.0163 81.153 14.5929 81.153 14.1161Z" stroke="black" stroke-width="0.629487" mask="url(#path-4-outside-1_1_17)"/>
<path d="M91.031 8.18434H92.2149V13.3638H92.6095L96.9504 10.5521H98.7263L93.6948 13.8571L98.9236 17.6554H97.1478L92.6095 14.2517H92.2149V17.6554H91.031V8.18434Z" stroke="black" stroke-width="0.629487" mask="url(#path-4-outside-1_1_17)"/>
</svg>
